<mxfile host="app.diagrams.net" modified="2023-11-08T17:20:38.058Z" agent="Mozilla/5.0 (Windows NT 10.0; Win64; x64; rv:109.0) Gecko/20100101 Firefox/119.0" version="22.0.8" etag="x_dI1Fo0yy-IWvKmKtJp" type="github">
  <diagram name="Страница — 1" id="rMeA8O6FbqbleNREgadS">
    <mxGraphModel>
      <root>
        <mxCell id="0" />
        <mxCell id="1" parent="0" />
      </root>
    </mxGraphModel>
  </diagram>
</mxfile>
